<svg width="219" height="53" viewBox="0 0 219 53" fill="none" xmlns="http://www.w3.org/2000/svg">
<path d="M53.9619 4.53023C55.9591 1.79493 60.0408 1.79494 62.0381 4.53024L89.4352 42.0514C91.8476 45.3552 89.4879 50 85.3971 50H30.6028C26.512 50 24.1524 45.3552 26.5647 42.0514L53.9619 4.53023Z" fill="#355DEC"/>
<rect width="12.2087" height="57.136" rx="6.10433" transform="matrix(0.845232 0.5344 -0.609657 0.792666 34.8333 0.42749)" fill="url(#paint0_linear_8_9)"/>
<ellipse cx="36.5" cy="7.61331" rx="6.5" ry="4.98667" fill="#355DEC"/>
<path d="M128.906 17.0618H132.858V31.3161C132.858 32.8786 132.489 34.2529 131.75 35.439C131.018 36.625 129.989 37.5519 128.661 38.2195C127.332 38.88 125.781 39.2103 124.005 39.2103C122.222 39.2103 120.667 38.88 119.339 38.2195C118.011 37.5519 116.981 36.625 116.249 35.439C115.518 34.2529 115.152 32.8786 115.152 31.3161V17.0618H119.104V30.9858C119.104 31.8949 119.303 32.7046 119.701 33.4148C120.106 34.125 120.674 34.6826 121.406 35.0874C122.137 35.4851 123.004 35.684 124.005 35.684C125.006 35.684 125.873 35.4851 126.604 35.0874C127.343 34.6826 127.911 34.125 128.309 33.4148C128.707 32.7046 128.906 31.8949 128.906 30.9858V17.0618ZM137.154 38.88V17.0618H145.336C147.012 17.0618 148.418 17.3743 149.555 17.9993C150.698 18.6243 151.561 19.4837 152.143 20.5774C152.733 21.6641 153.028 22.8999 153.028 24.2848C153.028 25.684 152.733 26.9269 152.143 28.0135C151.554 29.1002 150.684 29.956 149.533 30.581C148.383 31.1989 146.966 31.5078 145.282 31.5078H139.86V28.2586H144.75C145.73 28.2586 146.532 28.0881 147.157 27.7472C147.782 27.4063 148.244 26.9375 148.542 26.3409C148.848 25.7444 149.001 25.059 149.001 24.2848C149.001 23.5107 148.848 22.8289 148.542 22.2394C148.244 21.6499 147.779 21.1918 147.147 20.8651C146.522 20.5313 145.716 20.3644 144.729 20.3644H141.106V38.88H137.154ZM156.461 38.88V17.0618H160.413V26.2983H170.523V17.0618H174.486V38.88H170.523V29.6115H160.413V38.88H156.461ZM182.737 17.0618V38.88H178.785V17.0618H182.737ZM187.017 38.88V17.0618H190.97V35.5668H200.579V38.88H187.017ZM204.009 38.88V17.0618H207.962V35.5668H217.571V38.88H204.009Z" fill="#355DEC"/>
<defs>
<linearGradient id="paint0_linear_8_9" x1="6.10433" y1="0" x2="6.10433" y2="57.136" gradientUnits="userSpaceOnUse">
<stop stop-color="#335DF1"/>
<stop offset="0.604167" stop-color="#7588CB"/>
</linearGradient>
</defs>
</svg>
